<?xml version="1.0" encoding="UTF-8"?>
<!DOCTYPE svg PUBLIC "-//W3C//DTD SVG 1.1//EN" "http://www.w3.org/Graphics/SVG/1.1/DTD/svg11.dtd">
<svg xmlns="http://www.w3.org/2000/svg" version="1.1" width="499px" height="251px" style="shape-rendering:geometricPrecision; text-rendering:geometricPrecision; image-rendering:optimizeQuality; fill-rule:evenodd; clip-rule:evenodd" xmlns:xlink="http://www.w3.org/1999/xlink">
<g><path style="opacity:1" fill="#4e7ef3" d="M 277.5,11.5 C 286.53,11.3585 290.363,15.6918 289,24.5C 286.232,30.1725 281.732,32.0058 275.5,30C 268.359,22.8359 269.026,16.6692 277.5,11.5 Z"/></g>
<g><path style="opacity:1" fill="#f8b360" d="M 278.5,53.5 C 268.04,50.6908 257.373,49.8575 246.5,51C 244.277,51.5662 242.277,52.3995 240.5,53.5C 239.833,53.5 239.167,53.5 238.5,53.5C 227.979,55.5105 219.146,60.5105 212,68.5C 211.505,66.5273 211.338,64.5273 211.5,62.5C 214.016,47.334 222.682,37.5007 237.5,33C 256.389,29.8813 270.056,36.7146 278.5,53.5 Z"/></g>
<g><path style="opacity:1" fill="#fa8997" d="M 288.5,38.5 C 294.803,38.9239 296.469,41.7572 293.5,47C 286.237,47.8209 284.571,44.9876 288.5,38.5 Z"/></g>
<g><path style="opacity:1" fill="#d49e69" d="M 278.5,53.5 C 279.167,53.5 279.5,53.8333 279.5,54.5C 279.5,55.1667 279.5,55.8333 279.5,56.5C 278.791,57.404 277.791,57.7373 276.5,57.5C 276.167,57.5 275.833,57.5 275.5,57.5C 264.226,52.9661 252.56,51.6327 240.5,53.5C 242.277,52.3995 244.277,51.5662 246.5,51C 257.373,49.8575 268.04,50.6908 278.5,53.5 Z"/></g>
<g><path style="opacity:1" fill="#c4a8a8" d="M 275.5,57.5 C 273.316,59.5848 270.649,60.5848 267.5,60.5C 254.777,56.3361 242.11,56.5028 229.5,61C 226.761,62.0259 224.428,63.5259 222.5,65.5C 218.562,68.0985 214.895,71.0985 211.5,74.5C 211.5,73.8333 211.5,73.1667 211.5,72.5C 218.919,63.9538 227.919,57.6205 238.5,53.5C 239.167,53.5 239.833,53.5 240.5,53.5C 252.56,51.6327 264.226,52.9661 275.5,57.5 Z"/></g>
<g><path style="opacity:1" fill="#5276e9" d="M 279.5,54.5 C 281.153,54.6596 282.486,55.3263 283.5,56.5C 282.167,56.5 280.833,56.5 279.5,56.5C 279.5,55.8333 279.5,55.1667 279.5,54.5 Z"/></g>
<g><path style="opacity:1" fill="#37195f" d="M 267.5,60.5 C 282.733,67.4042 292.066,79.0709 295.5,95.5C 297.21,121.95 285.544,139.45 260.5,148C 232.075,151.559 213.575,139.726 205,112.5C 202.462,98.9915 205.129,86.6582 213,75.5C 216.371,72.2975 219.538,68.9641 222.5,65.5C 224.428,63.5259 226.761,62.0259 229.5,61C 242.11,56.5028 254.777,56.3361 267.5,60.5 Z"/></g>
<g><path style="opacity:1" fill="#daa982" d="M 238.5,53.5 C 227.919,57.6205 218.919,63.9538 211.5,72.5C 211.737,71.209 211.404,70.209 210.5,69.5C 210.198,66.9407 210.532,64.6074 211.5,62.5C 211.338,64.5273 211.505,66.5273 212,68.5C 219.146,60.5105 227.979,55.5105 238.5,53.5 Z"/></g>
<g><path style="opacity:1" fill="#fa8392" d="M 189.5,64.5 C 198.207,64.0367 201.707,68.0367 200,76.5C 194.818,83.0898 189.818,83.0898 185,76.5C 183.474,71.2389 184.974,67.2389 189.5,64.5 Z"/></g>
<g><path style="opacity:1" fill="#f97282" d="M 285.5,56.5 C 310.252,59.0893 321.086,72.7559 318,97.5C 317.427,99.6406 316.594,101.641 315.5,103.5C 313.353,82.8828 303.353,67.2161 285.5,56.5 Z"/></g>
<g><path style="opacity:1" fill="#d45a80" d="M 279.5,56.5 C 280.833,56.5 282.167,56.5 283.5,56.5C 284.167,56.5 284.833,56.5 285.5,56.5C 303.353,67.2161 313.353,82.8828 315.5,103.5C 315.5,103.833 315.5,104.167 315.5,104.5C 312.527,109.473 308.527,113.473 303.5,116.5C 307.75,90.6721 298.75,71.0054 276.5,57.5C 277.791,57.7373 278.791,57.404 279.5,56.5 Z"/></g>
<g><path style="opacity:1" fill="#d2c5dd" d="M 210.5,69.5 C 211.404,70.209 211.737,71.209 211.5,72.5C 211.5,73.1667 211.5,73.8333 211.5,74.5C 207.022,81.1245 203.355,88.1245 200.5,95.5C 201.683,85.9438 205.016,77.2771 210.5,69.5 Z"/></g>
<g><path style="opacity:1" fill="#dea6c0" d="M 275.5,57.5 C 275.833,57.5 276.167,57.5 276.5,57.5C 298.75,71.0054 307.75,90.6721 303.5,116.5C 303.5,116.833 303.5,117.167 303.5,117.5C 302.209,117.263 301.209,117.596 300.5,118.5C 298.5,119.167 296.5,119.833 294.5,120.5C 296.669,112.139 297.002,103.806 295.5,95.5C 292.066,79.0709 282.733,67.4042 267.5,60.5C 270.649,60.5848 273.316,59.5848 275.5,57.5 Z"/></g>
<g><path style="opacity:1" fill="#e4dcee" d="M 243.5,82.5 C 244.239,82.369 244.906,82.5357 245.5,83C 244.7,87.08 244.2,91.2467 244,95.5C 242.737,97.7969 240.903,98.6302 238.5,98C 240.629,92.9553 242.296,87.7886 243.5,82.5 Z"/></g>
<g><path style="opacity:1" fill="#d7cde2" d="M 250.5,85.5 C 253.001,85.5109 253.168,86.1776 251,87.5C 250.667,90.5 250.333,93.5 250,96.5C 249.311,97.3567 248.478,98.0233 247.5,98.5C 248.414,96.141 248.414,93.4743 247.5,90.5C 248.092,88.5775 249.092,86.9108 250.5,85.5 Z"/></g>
<g><path style="opacity:1" fill="#9969d6" d="M 199.5,98.5 C 200.327,111.317 203.993,123.317 210.5,134.5C 210.5,134.833 210.5,135.167 210.5,135.5C 207.615,134.455 205.448,132.455 204,129.5C 200.765,122.292 198.265,114.958 196.5,107.5C 196.905,104.285 197.905,101.285 199.5,98.5 Z"/></g>
<g><path style="opacity:1" fill="#396ff3" d="M 315.5,104.5 C 311.704,144.71 289.704,164.044 249.5,162.5C 249.5,162.167 249.5,161.833 249.5,161.5C 253.885,160.599 257.885,158.932 261.5,156.5C 263.306,155.976 264.972,155.309 266.5,154.5C 285.784,149.216 298.117,136.883 303.5,117.5C 303.5,117.167 303.5,116.833 303.5,116.5C 308.527,113.473 312.527,109.473 315.5,104.5 Z"/></g>
<g><path style="opacity:1" fill="#8148ce" d="M 196.5,107.5 C 198.265,114.958 200.765,122.292 204,129.5C 205.448,132.455 207.615,134.455 210.5,135.5C 213.195,138.526 215.862,141.526 218.5,144.5C 217.761,144.369 217.094,144.536 216.5,145C 225.644,154.334 236.644,159.834 249.5,161.5C 249.5,161.833 249.5,162.167 249.5,162.5C 223.279,164.99 205.779,153.99 197,129.5C 195.299,122.175 195.133,114.842 196.5,107.5 Z"/></g>
<g><path style="opacity:1" fill="#8da7f6" d="M 303.5,117.5 C 298.117,136.883 285.784,149.216 266.5,154.5C 266.833,153.5 267.5,152.833 268.5,152.5C 284.321,146.012 294.988,134.679 300.5,118.5C 301.209,117.596 302.209,117.263 303.5,117.5 Z"/></g>
<g><path style="opacity:1" fill="#a1b3f4" d="M 300.5,118.5 C 294.988,134.679 284.321,146.012 268.5,152.5C 270.194,150.139 272.194,148.139 274.5,146.5C 283.813,139.855 290.48,131.189 294.5,120.5C 296.5,119.833 298.5,119.167 300.5,118.5 Z"/></g>
<g><path style="opacity:1" fill="#5b407d" d="M 222.5,65.5 C 219.538,68.9641 216.371,72.2975 213,75.5C 205.129,86.6582 202.462,98.9915 205,112.5C 213.575,139.726 232.075,151.559 260.5,148C 285.544,139.45 297.21,121.95 295.5,95.5C 297.002,103.806 296.669,112.139 294.5,120.5C 290.48,131.189 283.813,139.855 274.5,146.5C 250.113,157.964 228.78,153.964 210.5,134.5C 203.993,123.317 200.327,111.317 199.5,98.5C 200.11,97.609 200.443,96.609 200.5,95.5C 203.355,88.1245 207.022,81.1245 211.5,74.5C 214.895,71.0985 218.562,68.0985 222.5,65.5 Z"/></g>
<g><path style="opacity:1" fill="#e8e0f0" d="M 263.5,101.5 C 266.52,103.106 269.353,105.106 272,107.5C 273.769,114.126 271.603,118.96 265.5,122C 259.893,123.397 254.559,125.397 249.5,128C 235.011,129.015 227.678,122.182 227.5,107.5C 227.5,105.5 227.5,103.5 227.5,101.5C 239.5,101.5 251.5,101.5 263.5,101.5 Z"/></g>
<g><path style="opacity:1" fill="#3d1f64" d="M 263.5,108.5 C 267.225,108.78 268.392,110.78 267,114.5C 265.649,116.019 264.149,117.352 262.5,118.5C 262.167,118.167 261.833,117.833 261.5,117.5C 263.13,114.724 263.797,111.724 263.5,108.5 Z"/></g>
<g><path style="opacity:1" fill="#0c0c0d" d="M 247.5,118.5 C 248.043,118.44 248.376,118.107 248.5,117.5C 246.955,116.548 245.288,116.215 243.5,116.5C 243.5,117.833 243.5,119.167 243.5,120.5C 241.833,120.5 240.167,120.5 238.5,120.5C 240.112,117.172 241.445,113.672 242.5,110C 242.265,109.127 241.931,108.293 241.5,107.5C 244.428,106.516 247.428,106.183 250.5,106.5C 251.628,111.219 252.962,115.886 254.5,120.5C 251.612,121.01 249.279,120.344 247.5,118.5 Z"/></g>
<g><path style="opacity:1" fill="#757279" d="M 247.5,118.5 C 246.791,117.596 245.791,117.263 244.5,117.5C 244.737,118.791 244.404,119.791 243.5,120.5C 244.404,119.791 244.737,118.791 244.5,117.5C 245.791,117.263 246.791,117.596 247.5,118.5 Z"/></g>
<g><path style="opacity:1" fill="#96919a" d="M 245.5,109.5 C 246.931,110.78 247.598,112.447 247.5,114.5C 246.5,114.5 245.5,114.5 244.5,114.5C 244.629,112.784 244.962,111.117 245.5,109.5 Z"/></g>
<g><path style="opacity:1" fill="#685086" d="M 263.5,101.5 C 251.5,101.5 239.5,101.5 227.5,101.5C 227.5,103.5 227.5,105.5 227.5,107.5C 226.532,105.393 226.198,103.059 226.5,100.5C 239.011,100.171 251.345,100.505 263.5,101.5 Z"/></g>
<g><path style="opacity:1" fill="#aa91df" d="M 210.5,134.5 C 228.78,153.964 250.113,157.964 274.5,146.5C 272.194,148.139 270.194,150.139 268.5,152.5C 267.5,152.833 266.833,153.5 266.5,154.5C 264.972,155.309 263.306,155.976 261.5,156.5C 245.285,158.866 230.952,154.866 218.5,144.5C 215.862,141.526 213.195,138.526 210.5,135.5C 210.5,135.167 210.5,134.833 210.5,134.5 Z"/></g>
<g><path style="opacity:1" fill="#5d30cd" d="M 218.5,144.5 C 230.952,154.866 245.285,158.866 261.5,156.5C 257.885,158.932 253.885,160.599 249.5,161.5C 236.644,159.834 225.644,154.334 216.5,145C 217.094,144.536 217.761,144.369 218.5,144.5 Z"/></g>
<g><path style="opacity:1" fill="#f7bc77" d="M 284.5,168.5 C 291.048,168.207 293.048,171.041 290.5,177C 284.744,179.569 281.911,177.736 282,171.5C 283.045,170.627 283.878,169.627 284.5,168.5 Z"/></g>
<g><path style="opacity:1" fill="#915ed4" d="M 233.5,171.5 C 240.19,170.331 241.857,172.497 238.5,178C 233.279,178.61 231.612,176.443 233.5,171.5 Z"/></g>
<g><path style="opacity:1" fill="#3d1f64" d="M 164.5,211.5 C 161.753,211.187 159.086,211.52 156.5,212.5C 156.624,213.107 156.957,213.44 157.5,213.5C 159.527,213.338 161.527,213.505 163.5,214C 164.791,215.292 164.791,216.458 163.5,217.5C 161.167,217.5 158.833,217.5 156.5,217.5C 156.5,218.5 156.5,219.5 156.5,220.5C 159.167,220.5 161.833,220.5 164.5,220.5C 165.801,221.884 165.801,223.384 164.5,225C 160.5,225.667 156.5,225.667 152.5,225C 151.167,219 151.167,213 152.5,207C 156.5,206.333 160.5,206.333 164.5,207C 165.801,208.616 165.801,210.116 164.5,211.5 Z"/></g>
<g><path style="opacity:1" fill="#3d1f64" d="M 233.5,206.5 C 237.514,206.334 241.514,206.501 245.5,207C 247.009,210.669 245.676,212.169 241.5,211.5C 241.666,215.846 241.499,220.179 241,224.5C 239.667,225.833 238.333,225.833 237,224.5C 236.501,220.179 236.334,215.846 236.5,211.5C 235.167,211.5 233.833,211.5 232.5,211.5C 232.366,209.708 232.699,208.042 233.5,206.5 Z"/></g>
<g><path style="opacity:1" fill="#3b1c61" d="M 330.5,206.5 C 334.182,206.335 337.848,206.501 341.5,207C 343.729,209.553 344.062,212.386 342.5,215.5C 345.167,218.5 345.167,221.5 342.5,224.5C 338.302,225.809 334.136,225.809 330,224.5C 329.212,218.418 329.379,212.418 330.5,206.5 Z"/></g>
<g><path style="opacity:1" fill="#3f2165" d="M 383.5,206.5 C 385.857,206.337 388.19,206.503 390.5,207C 391.833,208.333 391.833,209.667 390.5,211C 384.533,210.299 382.033,212.799 383,218.5C 384.011,219.337 385.178,219.67 386.5,219.5C 385.831,215.324 387.331,213.991 391,215.5C 393.74,225.097 390.573,227.93 381.5,224C 375.755,217.389 376.421,211.555 383.5,206.5 Z"/></g>
<g><path style="opacity:1" fill="#3e2064" d="M 108.5,206.5 C 109.822,206.33 110.989,206.663 112,207.5C 112.495,209.473 112.662,211.473 112.5,213.5C 113.833,213.5 115.167,213.5 116.5,213.5C 116.338,211.473 116.505,209.473 117,207.5C 118.049,206.483 119.216,206.316 120.5,207C 121.833,213 121.833,219 120.5,225C 119.216,225.684 118.049,225.517 117,224.5C 116.505,222.527 116.338,220.527 116.5,218.5C 115.167,218.5 113.833,218.5 112.5,218.5C 112.662,220.527 112.495,222.527 112,224.5C 110.667,225.833 109.333,225.833 108,224.5C 107.212,218.418 107.379,212.418 108.5,206.5 Z"/></g>
<g><path style="opacity:1" fill="#422568" d="M 125.5,206.5 C 126.822,206.33 127.989,206.663 129,207.5C 129.667,213.167 129.667,218.833 129,224.5C 127.667,225.833 126.333,225.833 125,224.5C 124.212,218.418 124.379,212.418 125.5,206.5 Z"/></g>
<g><path style="opacity:1" fill="#3c1e63" d="M 132.5,206.5 C 135.97,207.288 138.637,209.288 140.5,212.5C 141.982,210.517 143.649,208.684 145.5,207C 146.784,206.316 147.951,206.483 149,207.5C 149.807,213.416 149.641,219.25 148.5,225C 147.216,225.684 146.049,225.517 145,224.5C 144.667,221.5 144.333,218.5 144,215.5C 141.667,219.5 139.333,219.5 137,215.5C 136.667,218.5 136.333,221.5 136,224.5C 134.667,225.833 133.333,225.833 132,224.5C 131.212,218.418 131.379,212.418 132.5,206.5 Z"/></g>
<g><path style="opacity:1" fill="#3f2165" d="M 181.5,223.5 C 181.665,220.482 181.498,217.482 181,214.5C 180.283,215.044 179.783,215.711 179.5,216.5C 177.833,219.167 176.167,219.167 174.5,216.5C 174.44,215.957 174.107,215.624 173.5,215.5C 172.52,218.086 172.187,220.753 172.5,223.5C 171.15,226.106 169.65,226.106 168,223.5C 167.171,218.136 167.337,212.802 168.5,207.5C 169.293,207.069 170.127,206.735 171,206.5C 173.434,208.007 175.434,210.007 177,212.5C 178.62,210.759 180.12,208.925 181.5,207C 182.784,206.316 183.951,206.483 185,207.5C 185.667,213.167 185.667,218.833 185,224.5C 183.421,225.8 182.255,225.466 181.5,223.5 Z"/></g>
<g><path style="opacity:1" fill="#3f2165" d="M 196.5,206.5 C 199.168,207.099 201.002,208.766 202,211.5C 203.046,209.91 204.213,208.41 205.5,207C 208.667,206.167 209.833,207.333 209,210.5C 205.376,214.645 203.543,219.479 203.5,225C 202.216,225.684 201.049,225.517 200,224.5C 199.667,221.5 199.333,218.5 199,215.5C 195.809,213.062 194.975,210.062 196.5,206.5 Z"/></g>
<g><path style="opacity:1" fill="#3e2064" d="M 251.5,206.5 C 254.48,206.241 256.313,207.574 257,210.5C 258.781,214.395 260.281,218.395 261.5,222.5C 261.566,224.266 260.732,225.266 259,225.5C 257.76,223.355 255.926,222.022 253.5,221.5C 250.876,221.289 249.21,222.456 248.5,225C 245.333,225.833 244.167,224.667 245,221.5C 247.179,216.479 249.346,211.479 251.5,206.5 Z"/></g>
<g><path style="opacity:1" fill="#402266" d="M 271.5,206.5 C 272.552,206.351 273.552,206.517 274.5,207C 275.376,208.586 276.376,210.086 277.5,211.5C 278.624,210.086 279.624,208.586 280.5,207C 281.784,206.316 282.951,206.483 284,207.5C 281.417,212.925 279.917,218.759 279.5,225C 278.216,225.684 277.049,225.517 276,224.5C 275.667,221.833 275.333,219.167 275,216.5C 271.753,213.716 270.587,210.383 271.5,206.5 Z"/></g>
<g><path style="opacity:1" fill="#422467" d="M 290.5,206.5 C 298.452,204.968 303.119,208.135 304.5,216C 303.12,224.027 298.453,227.027 290.5,225C 282.569,218.796 282.569,212.629 290.5,206.5 Z"/></g>
<g><path style="opacity:1" fill="#442669" d="M 306.5,206.5 C 307.822,206.33 308.989,206.663 310,207.5C 310.333,211.5 310.667,215.5 311,219.5C 312.356,220.38 313.856,220.714 315.5,220.5C 315.334,216.154 315.501,211.821 316,207.5C 317.938,206.14 319.604,206.473 321,208.5C 321.879,213.287 321.545,217.953 320,222.5C 317.091,225.394 313.591,226.227 309.5,225C 307.951,223.786 306.785,222.286 306,220.5C 305.227,215.748 305.393,211.081 306.5,206.5 Z"/></g>
<g><path style="opacity:1" fill="#3b1d62" d="M 347.5,206.5 C 348.822,206.33 349.989,206.663 351,207.5C 351.499,211.821 351.666,216.154 351.5,220.5C 353.167,220.5 354.833,220.5 356.5,220.5C 356.714,222.144 356.38,223.644 355.5,225C 352.571,225.777 349.737,225.61 347,224.5C 346.212,218.418 346.379,212.418 347.5,206.5 Z"/></g>
<g><path style="opacity:1" fill="#432568" d="M 362.5,206.5 C 370.452,204.968 375.119,208.135 376.5,216C 375.12,224.027 370.453,227.027 362.5,225C 354.663,218.715 354.663,212.548 362.5,206.5 Z"/></g>
<g><path style="opacity:1" fill="#3e2064" d="M 215.5,206.5 C 216.675,206.281 217.675,206.614 218.5,207.5C 221.868,212.769 223.702,218.436 224,224.5C 223.586,224.957 223.086,225.291 222.5,225.5C 220.876,223.559 218.876,222.226 216.5,221.5C 213.876,221.289 212.21,222.456 211.5,225C 208.333,225.833 207.167,224.667 208,221.5C 210.529,216.442 213.029,211.442 215.5,206.5 Z"/></g>
<g><path style="opacity:1" fill="#9f8eb5" d="M 164.5,211.5 C 162.167,212.167 159.833,212.833 157.5,213.5C 156.957,213.44 156.624,213.107 156.5,212.5C 159.086,211.52 161.753,211.187 164.5,211.5 Z"/></g>
<g><path style="opacity:1" fill="#ebe3f4" d="M 292.5,211.5 C 298.643,212.026 299.976,214.86 296.5,220C 292.663,221 290.663,219.5 290.5,215.5C 290.803,213.886 291.47,212.552 292.5,211.5 Z"/></g>
<g><path style="opacity:1" fill="#ebe3f4" d="M 364.5,211.5 C 370.643,212.026 371.976,214.86 368.5,220C 364.663,221 362.663,219.5 362.5,215.5C 362.803,213.886 363.47,212.552 364.5,211.5 Z"/></g>
<g><path style="opacity:1" fill="#bbadcd" d="M 334.5,211.5 C 336.167,211.5 337.833,211.5 339.5,211.5C 339.5,212.5 339.5,213.5 339.5,214.5C 337.833,214.5 336.167,214.5 334.5,214.5C 334.5,213.5 334.5,212.5 334.5,211.5 Z"/></g>
<g><path style="opacity:1" fill="#836e9e" d="M 174.5,216.5 C 173.833,218.833 173.167,221.167 172.5,223.5C 172.187,220.753 172.52,218.086 173.5,215.5C 174.107,215.624 174.44,215.957 174.5,216.5 Z"/></g>
<g><path style="opacity:1" fill="#7f6a9a" d="M 181.5,223.5 C 180.833,221.167 180.167,218.833 179.5,216.5C 179.783,215.711 180.283,215.044 181,214.5C 181.498,217.482 181.665,220.482 181.5,223.5 Z"/></g>
<g><path style="opacity:1" fill="#c4b7d4" d="M 215.5,214.5 C 217.465,214.948 217.798,215.948 216.5,217.5C 215.614,216.675 215.281,215.675 215.5,214.5 Z"/></g>
<g><path style="opacity:1" fill="#c3b5d3" d="M 252.5,214.5 C 254.465,214.948 254.798,215.948 253.5,217.5C 252.614,216.675 252.281,215.675 252.5,214.5 Z"/></g>
<g><path style="opacity:1" fill="#cfc3dd" d="M 334.5,217.5 C 336.288,217.215 337.955,217.548 339.5,218.5C 338.667,218.833 337.833,219.167 337,219.5C 335.624,219.316 334.791,218.649 334.5,217.5 Z"/></g>
<g><path style="opacity:1" fill="#907da9" d="M 163.5,217.5 C 161.708,218.309 159.708,218.809 157.5,219C 160.036,219.186 162.369,219.686 164.5,220.5C 161.833,220.5 159.167,220.5 156.5,220.5C 156.5,219.5 156.5,218.5 156.5,217.5C 158.833,217.5 161.167,217.5 163.5,217.5 Z"/></g>
<g><path style="opacity:1" fill="#46296b" d="M 189.5,206.5 C 190.822,206.33 191.989,206.663 193,207.5C 193.667,213.167 193.667,218.833 193,224.5C 191.667,225.833 190.333,225.833 189,224.5C 188.212,218.418 188.379,212.418 189.5,206.5 Z"/></g>
<g><path style="opacity:1" fill="#422567" d="M 264.5,206.5 C 265.822,206.33 266.989,206.663 268,207.5C 268.667,213.167 268.667,218.833 268,224.5C 266.667,225.833 265.333,225.833 264,224.5C 263.212,218.418 263.379,212.418 264.5,206.5 Z"/></g>
</svg>
